<svg width="1170" height="45" viewBox="0 0 1170 45" fill="none" xmlns="http://www.w3.org/2000/svg">
<path d="M377.074 27.3961C377.784 26.8957 378.539 26.4496 379.198 25.8879C383.353 22.3449 387.131 18.3902 390.472 14.0858C390.682 13.7382 390.995 13.4639 391.37 13.3013C391.744 13.1387 392.16 13.0959 392.56 13.1788C392.411 13.4093 392.28 13.6288 392.131 13.8336C389.492 17.4003 386.556 20.7417 383.352 23.8228C381.032 26.0859 378.529 28.1576 375.868 30.0171C375.692 30.1323 375.548 30.2881 375.446 30.471C374.278 32.7816 373.427 35.2363 372.915 37.7701C372.84 38.2626 372.87 38.7651 373.002 39.2457C373.027 39.3709 373.084 39.4879 373.167 39.5857C373.25 39.6836 373.356 39.7593 373.476 39.8058C373.597 39.8524 373.727 39.8684 373.855 39.8522C373.983 39.8361 374.105 39.7884 374.209 39.7135C374.638 39.4842 375.02 39.178 375.336 38.8105C376.336 37.5545 377.335 36.2944 378.224 34.9632C379.902 32.2729 381.754 29.693 383.77 27.2399C385.159 25.5407 386.83 24.0876 388.712 22.9425C389.444 22.5544 390.235 22.2872 391.054 22.1513C391.46 22.0666 391.882 22.1035 392.267 22.2573C392.652 22.4111 392.982 22.6748 393.215 23.0147C393.375 23.2303 393.552 23.4281 393.793 23.7169C394.008 22.5301 394.823 22.4935 395.739 22.5439C396.655 22.5944 397.608 22.5548 398.667 22.5548C398.532 22.8179 398.445 23.0157 398.339 23.2026C395.903 27.439 393.469 31.6763 391.037 35.9147C390.52 36.8176 390.066 37.7612 389.638 38.7077C389.538 38.9381 389.664 39.2655 389.685 39.5503C389.975 39.5529 390.264 39.504 390.536 39.4059C391.911 38.5146 393.102 37.3736 394.046 36.0432C394.716 35.1689 395.373 34.2798 395.966 33.3511C396.071 33.1173 396.253 32.9256 396.482 32.8073C396.711 32.6889 396.974 32.6509 397.228 32.6993C397.404 32.7138 397.58 32.7138 397.756 32.6993C397.745 32.7982 397.756 32.8615 397.734 32.8971C395.957 35.851 393.799 38.5635 391.315 40.9666C390.26 41.8137 389.148 42.5892 387.987 43.2879C387.936 43.3162 387.882 43.3404 387.827 43.3601C385.784 44.271 384.401 43.3848 384.429 41.1842C384.429 40.9538 384.429 40.7233 384.429 40.393C384.244 40.5582 384.106 40.6986 383.95 40.8173C382.935 41.5947 381.939 42.3997 380.892 43.1277C380.483 43.3895 380.023 43.5646 379.543 43.6419C379.188 43.7216 378.819 43.7206 378.464 43.639C378.11 43.5574 377.778 43.3974 377.495 43.1708C377.212 42.9443 376.984 42.6572 376.829 42.3311C376.674 42.005 376.596 41.6484 376.601 41.2881C376.554 40.7016 376.594 40.1111 376.594 39.4485C375.946 40.1408 375.4 40.8123 374.75 41.3781C373.998 42.076 373.171 42.6902 372.284 43.2097C370.095 44.3867 368.087 43.1989 367.938 40.7223C367.914 39.1395 368.177 37.5653 368.713 36.0739C369.102 34.803 369.527 33.5469 369.96 32.2167C369.178 32.3027 368.451 32.3571 367.734 32.4797C367.582 32.5045 367.451 32.7676 367.349 32.9436C366.011 35.3216 364.418 37.5502 362.599 39.5909C361.406 40.922 359.998 42.0471 358.431 42.92C357.905 43.21 357.343 43.4315 356.759 43.5786C356.348 43.7141 355.91 43.7502 355.482 43.6841C355.054 43.618 354.649 43.4515 354.299 43.1985C353.949 42.9456 353.666 42.6135 353.473 42.23C353.279 41.8466 353.181 41.4229 353.187 40.9943C353.067 39.508 353.279 38.0139 353.809 36.6179C355.505 31.8648 358.457 27.6482 362.358 24.4063C363.531 23.3787 364.929 22.634 366.442 22.2304C368.122 21.8091 369.44 22.3382 369.868 23.6774C370.056 24.3433 370.129 25.0357 370.086 25.7257C369.941 27.2639 369.5 28.7605 368.787 30.1348L368.387 31.0249C368.903 31.1525 369.448 31.1019 369.932 30.8814C370.415 30.6609 370.808 30.2838 371.045 29.8123C374.147 23.3002 378.056 17.1958 382.683 11.6399C385.115 8.74331 387.849 6.10849 390.839 3.77908C392.111 2.65541 393.656 1.87892 395.323 1.52607C396.756 1.31343 397.411 1.88212 397.44 3.30632C397.431 4.60694 397.018 5.8734 396.258 6.93409C396.018 7.2941 395.33 7.35838 394.847 7.56014C394.807 7.5097 394.771 7.46124 394.731 7.40882C394.978 6.9054 395.258 6.41188 395.458 5.88967C395.736 5.21731 395.956 4.5224 396.113 3.8127C396.229 3.18269 395.902 2.96015 395.327 3.28357C394.565 3.70803 393.847 4.20489 393.182 4.76711C390.488 7.1183 388.078 9.76931 385.999 12.6675C382.767 17.088 379.87 21.74 377.333 26.5851C377.209 26.8225 377.122 27.0797 377.02 27.3269C377.02 27.3704 377.009 27.4129 377.005 27.4604C377.03 27.4408 377.053 27.4193 377.074 27.3961ZM381.918 38.6711C381.889 38.8315 381.91 38.9971 381.981 39.1447C382.051 39.2922 382.166 39.4144 382.31 39.4941C382.453 39.5737 382.619 39.6069 382.783 39.589C382.946 39.5711 383.101 39.5029 383.223 39.3941C383.937 38.9318 384.573 38.3611 385.107 37.7028C388.114 33.8664 390.204 29.4681 392.748 25.3469C392.826 25.2454 392.87 25.1229 392.875 24.9958C392.881 24.8687 392.847 24.7429 392.778 24.6354C392.709 24.5279 392.609 24.4437 392.491 24.3941C392.372 24.3445 392.241 24.3319 392.115 24.3578C391.642 24.4393 391.193 24.6222 390.799 24.8939C390.324 25.2296 389.883 25.6106 389.483 26.0313C386.796 28.7996 384.567 31.9706 382.878 35.4271C382.321 36.4252 381.994 37.5336 381.922 38.6721L381.918 38.6711ZM362.669 28.9281C360.884 31.168 359.492 33.6889 358.551 36.3854C358.365 37.0306 358.298 37.7036 358.352 38.3724C358.348 38.5737 358.399 38.7723 358.497 38.9485C358.595 39.1248 358.738 39.2726 358.912 39.3773C359.086 39.482 359.284 39.54 359.487 39.5455C359.691 39.5511 359.892 39.504 360.071 39.4089C360.613 39.1971 361.115 38.8961 361.555 38.5188C363.502 36.7597 365.076 34.6362 366.188 32.2711C366.203 32.2424 366.188 32.1989 366.173 32.1168C364.66 31.5019 363.418 30.3712 362.674 28.9291L362.669 28.9281ZM364.189 27.5712C364.212 28.2604 364.439 28.9277 364.841 29.4903C365.244 30.053 365.805 30.4861 366.454 30.7361C366.825 30.8943 367.065 30.8835 367.226 30.473C367.658 29.3851 368.186 28.3209 368.525 27.2013C368.698 26.5131 368.739 25.7988 368.645 25.0956C368.554 24.2055 367.997 23.8791 367.118 24.0522C366.333 24.2862 365.636 24.7457 365.115 25.3724C364.595 25.9991 364.274 26.7648 364.194 27.5722L364.189 27.5712Z" fill="#D4AC9E"/>
<path d="M330.361 12.8336C330.554 12.0236 331.11 11.9771 331.76 12.0018C332.807 12.0414 333.859 12.0127 335.03 12.0127C334.884 12.2965 334.783 12.5072 334.662 12.7149C331.851 17.5598 329.04 22.4038 326.23 27.2467C326.041 27.5594 325.91 27.9031 325.844 28.2615C325.768 28.7619 326.106 29.0141 326.56 28.7906C327.062 28.5798 327.522 28.2809 327.917 27.9084C329.343 26.3823 330.79 24.8632 332.07 23.2224C332.297 22.9185 332.613 22.6905 332.975 22.569C333.337 22.4474 333.728 22.4379 334.095 22.5419C333.612 23.2184 333.186 23.8276 332.746 24.4319C331.067 26.8746 329.083 29.0975 326.84 31.0476C326.092 31.6616 325.291 32.2106 324.447 32.6884C323.95 32.9511 323.402 33.1059 322.84 33.1423C322.582 33.1658 322.322 33.1359 322.076 33.0543C321.83 32.9728 321.604 32.8415 321.413 32.6688C321.221 32.4961 321.068 32.2858 320.963 32.0513C320.858 31.8168 320.804 31.5632 320.803 31.3067C320.781 30.9032 320.803 30.5006 320.803 29.9675C320.617 30.1475 320.503 30.284 320.363 30.3918C319.364 31.1583 318.385 31.9426 317.359 32.6666C317.008 32.874 316.621 33.0145 316.217 33.081C315.836 33.2128 315.427 33.2481 315.028 33.1836C314.63 33.1191 314.254 32.957 313.935 32.7119C313.615 32.4668 313.363 32.1466 313.201 31.7804C313.039 31.4142 312.972 31.0137 313.006 30.6154C313.061 29.85 313.173 29.0896 313.341 28.3406C313.37 28.1606 313.417 27.9875 313.49 27.671C312.527 28.5671 311.691 29.3731 310.821 30.1436C309.477 31.4713 307.821 32.4483 306.002 32.9871C305.065 33.2804 304.059 33.2804 303.122 32.9871C302.431 32.7118 301.833 32.2487 301.397 31.6514C300.961 31.0542 300.704 30.347 300.656 29.6115C300.41 28.0387 300.642 26.429 301.322 24.9868C301.912 23.6259 302.566 22.2947 303.235 20.8625C302.3 21.2047 301.282 21.0425 300.667 22.173C299.24 24.9693 297.346 27.5064 295.063 29.6768C293.962 30.6526 292.793 31.5508 291.565 32.365C290.986 32.7195 290.346 32.9659 289.678 33.0919C289.324 33.1913 288.954 33.2189 288.589 33.1732C288.225 33.1274 287.873 33.0093 287.556 32.8257C287.238 32.6422 286.962 32.3971 286.742 32.1051C286.523 31.8131 286.366 31.4803 286.28 31.1267C285.923 29.7554 285.946 28.3145 286.346 26.955C287.203 23.7379 288.773 20.7502 290.943 18.209C292.475 16.2301 294.314 14.5028 296.39 13.0907C297.426 12.3659 298.6 11.8565 299.841 11.5933C300.266 11.4697 300.715 11.4491 301.15 11.5334C301.585 11.6177 301.993 11.8043 302.34 12.0776C302.686 12.3508 302.961 12.7026 303.142 13.1033C303.322 13.5039 303.402 13.9416 303.376 14.3794C303.375 15.8085 303.078 17.2223 302.503 18.5334C302.368 18.8894 302.219 19.2385 302.003 19.7677C302.433 19.6499 302.855 19.5045 303.266 19.3325C304.874 18.4222 306.341 17.2877 307.623 15.9639C308.877 14.7831 310.197 13.6727 311.576 12.6378C312.543 11.8996 313.734 11.5077 314.955 11.5261C315.402 11.4913 315.85 11.5613 316.264 11.7304C316.678 11.8995 317.046 12.163 317.338 12.4994C317.629 12.8358 317.837 13.2356 317.943 13.6663C318.049 14.0969 318.051 14.5463 317.948 14.9778C317.72 16.4398 317.012 17.7868 315.933 18.8113C315.221 19.4947 314.497 19.646 313.948 19.2751C313.657 19.0247 313.47 18.6772 313.422 18.2989C313.373 17.9206 313.467 17.538 313.686 17.2239C313.873 16.6805 314.214 16.202 314.669 15.8457C315.124 15.4894 315.673 15.2705 316.25 15.2152C316.326 15.1936 316.396 15.1551 316.454 15.1026C316.513 15.0501 316.559 14.9851 316.588 14.9125C316.659 14.7508 316.681 14.5724 316.653 14.3985C316.624 14.2245 316.546 14.0622 316.428 13.9307C316.309 13.7991 316.155 13.7038 315.984 13.6559C315.813 13.608 315.631 13.6096 315.461 13.6604C314.785 13.8249 314.152 14.1281 313.602 14.5505C310.368 17.2784 307.888 20.7764 306.398 24.7148C306.041 25.7056 305.774 26.7257 305.598 27.763C305.564 28.1282 305.62 28.4963 305.762 28.8351C305.878 29.2501 306.153 29.6039 306.528 29.8216C306.904 30.0393 307.35 30.1037 307.773 30.0012C308.897 29.7341 309.928 29.1705 310.755 28.3703C312.993 26.3274 314.98 24.0309 316.675 21.5281C318.516 18.7506 320.705 16.2148 323.189 13.9809C324.028 13.2627 324.941 12.6329 325.913 12.1017C327.761 11.1137 328.828 11.3233 330.361 12.8336ZM318.302 27.8401C318.273 28.8944 318.952 29.3445 319.589 28.8915C320.368 28.3508 321.081 27.724 321.717 27.0232C322.371 26.2573 322.951 25.4317 323.447 24.5575C325.404 21.268 327.324 17.9637 329.244 14.6524C329.35 14.4684 329.419 14.1124 329.32 13.9977C329.126 13.7953 328.86 13.6755 328.578 13.6634C328.266 13.675 327.964 13.7764 327.709 13.9551C327.133 14.343 326.597 14.7866 326.11 15.2795C325.386 16.0568 324.732 16.9025 324.073 17.7412C321.945 20.2578 320.194 23.0653 318.876 26.0767C318.611 26.7305 318.435 27.4218 318.302 27.8401ZM295.689 18.2624C294.298 20.0951 293.127 22.0807 292.197 24.1797C291.833 25.109 291.554 26.069 291.364 27.0479C291.281 27.3613 291.299 27.6926 291.416 27.9954C291.533 28.2981 291.742 28.5572 292.015 28.7362C292.285 28.8774 292.591 28.9347 292.894 28.9006C293.197 28.8666 293.483 28.7427 293.714 28.5453C294.265 28.1849 294.784 27.7792 295.267 27.3328C296.96 25.5752 298.397 23.5922 299.536 21.4411C299.571 21.3601 299.596 21.2755 299.612 21.1889C297.983 20.7262 296.585 19.6816 295.689 18.2574V18.2624ZM301.831 15.3863C301.831 15.232 301.842 15.0767 301.831 14.9254C301.851 14.6962 301.811 14.4657 301.713 14.257C301.615 14.0484 301.463 13.869 301.273 13.7369C301.083 13.6048 300.86 13.5247 300.629 13.5046C300.397 13.4846 300.164 13.5254 299.954 13.6228C299.22 13.9046 298.58 14.3826 298.105 15.0034C297.63 15.6242 297.338 16.3636 297.263 17.1388C297.248 18.5235 298.95 19.7162 300.278 19.7519C300.332 19.7482 300.384 19.732 300.431 19.7045C300.478 19.677 300.517 19.639 300.546 19.5936C301.27 18.2939 301.708 16.8574 301.831 15.3784V15.3863Z" fill="#D4AC9E"/>
<path d="M365.546 3.13559C364.521 2.80941 363.407 2.89868 362.448 3.38384C360.314 4.38696 358.331 5.67552 356.552 7.21336C352.969 10.3503 349.799 13.9199 347.115 17.8385C344.151 21.7467 341.881 26.1257 340.401 30.7879C339.822 32.5293 339.523 34.3498 339.514 36.183C339.538 36.7983 339.657 37.4062 339.867 37.986C340.001 38.4434 340.232 38.8671 340.545 39.2294C340.857 39.5916 341.244 39.884 341.679 40.0872C342.115 40.2904 342.589 40.3997 343.07 40.408C343.551 40.4163 344.028 40.3233 344.471 40.1352C345.524 39.7326 346.503 39.1612 347.369 38.444C350.732 35.7278 353.119 32.0085 354.173 27.8406C354.341 27.069 354.402 26.2785 354.355 25.4906C354.319 24.5155 353.716 24.1337 352.756 24.375C352.005 24.6066 351.351 25.0756 350.894 25.7102C349.649 27.2032 348.79 28.9733 348.389 30.868C348.339 31.0805 348.207 31.2652 348.021 31.3823C346.129 32.3484 344.423 33.6359 342.981 35.1861C342.93 35.2405 342.872 35.285 342.726 35.4126C342.874 33.8784 343.206 32.3671 343.715 30.9105C344.555 28.1393 346.228 25.6872 348.512 23.8815C349.71 22.9424 351.145 22.345 352.661 22.1537C353.245 22.0606 353.843 22.1765 354.348 22.4807C354.854 22.7849 355.233 23.2573 355.417 23.8132C355.889 25.2164 355.906 26.7304 355.464 28.1432C354.252 32.6026 351.772 36.6237 348.318 39.7287C346.82 41.2295 345.023 42.4062 343.042 43.1844C341.841 43.665 340.535 43.8263 339.252 43.6522C336.328 43.1775 334.768 41.2627 334.029 38.5992C333.429 36.0876 333.562 33.4585 334.415 31.0193C336.228 25.4259 339.071 20.2129 342.802 15.6439C346.01 11.3505 349.934 7.62933 354.405 4.6399C356.697 3.09851 359.245 1.96798 361.933 1.29995C362.61 1.06905 363.33 0.984884 364.042 1.05314C364.755 1.1214 365.445 1.34049 366.064 1.69557C366.402 1.94426 366.804 2.09316 367.224 2.12502C367.644 2.15688 368.064 2.07038 368.436 1.87556C370.026 1.27227 371.73 1.02057 373.429 1.13812C375.128 1.25567 376.78 1.73962 378.269 2.55602C380.819 3.87736 383.284 5.36684 385.783 6.78511C385.87 6.84167 385.953 6.90309 386.033 6.96908L382.783 10.4059C382.283 10.1221 381.749 9.84418 381.248 9.52769C379.291 8.3003 377.35 7.04028 375.385 5.82773C373.795 4.81062 372.024 4.10115 370.167 3.73692C369.532 3.6594 368.891 3.64845 368.254 3.70428C367.948 3.71516 367.803 3.88824 367.817 4.24429C367.843 7.11547 367.002 9.92883 365.403 12.3247C364.407 14.1255 363.057 15.7104 361.432 16.986C360.758 17.4762 360.027 17.8825 359.253 18.1956C357.118 19.0629 355.732 17.792 355.855 15.6112C355.93 14.826 356.133 14.058 356.455 13.3364C358.157 9.32131 361.076 5.92739 364.808 3.6222C365.011 3.4778 365.222 3.34427 365.546 3.13559ZM366.553 4.26901C366.2 4.44506 366.025 4.52419 365.863 4.61815C362.193 6.79007 359.304 10.0451 357.6 13.9259C357.351 14.4894 357.204 15.0921 357.167 15.7062C357.087 16.8287 357.928 17.3766 358.975 16.9078C359.488 16.6753 359.969 16.3802 360.408 16.0296C363.472 13.6806 365.561 10.3034 366.281 6.53488C366.418 5.83465 366.451 5.11463 366.553 4.26901Z" fill="#D4AC9E"/>
<path d="M329.837 44.3738C327.74 42.9872 325.357 42.0797 322.862 41.7172C321.397 41.5308 319.915 41.5152 318.447 41.6707C317.61 41.788 316.811 42.0916 316.11 42.5586C315.409 43.0256 314.824 43.6438 314.399 44.3668C314.341 44.3273 314.279 44.3055 314.253 44.262C313.546 43.1006 312.581 42.1137 311.431 41.376C310.281 40.6384 308.977 40.1693 307.617 40.0042C304.21 39.5328 300.743 39.7495 297.423 40.6412C293.652 41.5046 289.895 42.4412 286.117 43.2829C283.823 43.8803 281.412 43.8915 279.112 43.3155C277.235 42.8814 275.541 41.8795 274.266 40.449C272.99 39.0185 272.197 37.2304 271.995 35.333C271.519 31.6412 272.028 27.8904 273.471 24.4537C275.857 18.3081 279.682 12.8109 284.634 8.41459C287.389 5.75541 290.612 3.61723 294.144 2.10557C295.737 1.41925 297.45 1.04284 299.187 0.996866C299.717 0.960954 300.247 1.04856 300.736 1.25264C301.225 1.45671 301.659 1.77153 302.003 2.17179C302.346 2.57205 302.59 3.04655 302.714 3.55709C302.839 4.06764 302.84 4.59997 302.719 5.11124C302.479 6.50925 301.832 7.80753 300.857 8.8468C300.443 9.24705 299.931 9.53255 299.37 9.67462C298.552 9.90506 298.028 9.47681 297.901 8.63416C297.88 7.86166 298.117 7.10388 298.575 6.47811C299.033 5.85234 299.687 5.39347 300.436 5.17255C300.697 5.12607 301.135 5.03904 301.166 4.8986C301.282 4.51819 301.26 4.10949 301.104 3.7434C300.994 3.57132 300.848 3.42475 300.675 3.31364C300.503 3.20253 300.308 3.12951 300.105 3.09955C299.429 3.07351 298.754 3.16866 298.112 3.38043C295.911 4.18788 293.913 5.45871 292.257 7.10511C286.833 12.0466 282.545 18.0842 279.685 24.8088C278.391 27.6056 277.727 30.6477 277.739 33.7239C277.776 34.609 277.91 35.4875 278.139 36.3438C278.885 39.122 281.037 40.3672 283.631 41.0447C285.597 41.5032 287.646 41.4822 289.602 40.9834C294.213 39.9538 298.807 38.8421 303.407 37.7552C306.34 37.0421 309.333 36.5998 312.349 36.4338C317.589 36.1134 322.744 37.8618 326.684 41.2959C327.805 42.2424 328.848 43.2789 329.928 44.2758C329.896 44.3067 329.866 44.3394 329.837 44.3738Z" fill="#D4AC9E"/>
<path d="M387.258 12.165C388.291 10.9416 389.247 9.80024 390.218 8.67769C390.279 8.6217 390.352 8.57877 390.43 8.55155C390.509 8.52434 390.593 8.51341 390.676 8.51944C395.942 8.87549 400.226 6.62643 404.175 3.51692C404.975 2.88394 405.721 2.1669 406.536 1.44788C406.535 1.54409 406.52 1.63967 406.492 1.73172C403.434 6.93599 399.153 10.6182 393.171 12.1472C391.235 12.661 389.197 12.6671 387.258 12.165Z" fill="#D4AC9E"/>
<path d="M342.169 12.0137C341.402 13.2994 340.714 14.4576 340.009 15.6088C339.97 15.67 339.918 15.7222 339.857 15.762C339.797 15.8017 339.728 15.8281 339.656 15.8393C338.416 15.8571 337.172 15.8502 335.822 15.8502C336.583 14.5793 337.284 13.3924 338.004 12.2115C338.04 12.1591 338.088 12.1149 338.143 12.082C338.198 12.0491 338.26 12.0282 338.324 12.0206C339.562 12.0097 340.802 12.0137 342.169 12.0137Z" fill="#D4AC9E"/>
<path d="M400.608 38.6335H401.957C402.215 39.7778 402.47 40.9152 402.727 42.0565L402.843 42.0783C403.101 40.9369 403.36 39.7966 403.622 38.6443H404.989V43.4204H404.124V39.9588C404.088 39.9588 404.048 39.9479 404.011 39.9439C403.756 41.0991 403.505 42.2513 403.254 43.3917C402.327 43.5361 402.327 43.5361 402.145 42.6934C401.985 41.8405 401.76 41.0008 401.472 40.1813V43.4313H400.611C400.608 41.837 400.608 40.2634 400.608 38.6335Z" fill="#D4AC9E"/>
<path d="M409.095 41.1278C409.801 41.8201 409.532 42.6213 409.514 43.4204H408.572C408.572 43.0357 408.561 42.6578 408.572 42.279C408.594 41.7608 408.339 41.5373 407.83 41.5482C407.539 41.5551 407.248 41.5482 406.896 41.5482V43.4016H405.953V38.6216C406.808 38.6216 407.644 38.6038 408.478 38.6285C408.754 38.6422 409.017 38.749 409.223 38.931C409.429 39.1131 409.567 39.3595 409.612 39.6294C409.703 39.9007 409.702 40.1942 409.609 40.4649C409.516 40.7356 409.335 40.9685 409.095 41.1278ZM406.903 40.7213C407.313 40.7213 407.677 40.7213 408.041 40.7213C408.456 40.7213 408.707 40.5591 408.707 40.1131C408.718 40.0264 408.71 39.9384 408.683 39.8551C408.656 39.7719 408.611 39.6956 408.551 39.6316C408.491 39.5677 408.417 39.5177 408.335 39.4851C408.253 39.4526 408.165 39.4384 408.077 39.4435C407.695 39.4257 407.313 39.4435 406.903 39.4435C406.903 39.8797 406.903 40.2525 406.903 40.7213Z" fill="#D4AC9E"/>
<path d="M506.668 18.862C506.668 17.9006 506.668 16.9443 506.673 15.9829C507.041 12.8134 508.23 9.79175 510.126 7.2112C511.546 5.29965 513.34 3.69034 515.401 2.47905C517.462 1.26776 519.749 0.479251 522.124 0.160435C524.5 -0.158381 526.916 -0.000987367 529.229 0.623258C531.541 1.2475 533.704 2.32585 535.587 3.7941C536.786 4.74555 536.786 4.74554 535.733 5.786C535.114 6.39821 534.455 6.98669 533.876 7.63352C533.453 8.11122 533.181 8.04693 532.709 7.66319C530.18 5.57714 526.929 4.54736 523.646 4.79197C520.363 5.03658 517.305 6.53636 515.12 8.97365C513.458 10.8622 512.389 13.1905 512.046 15.6722C511.703 18.1539 512.101 20.6806 513.19 22.9417C514.212 25.2075 515.914 27.1079 518.063 28.3861C520.212 29.6644 522.706 30.259 525.208 30.0894C527.774 30.0822 530.268 29.2444 532.309 27.7039C534.288 26.2199 535.612 24.0382 536.007 21.6125C536.142 20.9102 535.992 20.7362 535.282 20.7461C532.071 20.7807 528.86 20.7263 525.649 20.7856C524.738 20.8005 524.507 20.5166 524.567 19.67C524.621 18.6818 524.624 17.6915 524.577 16.7029C524.562 16.1995 524.658 15.9513 525.262 15.9562C530.258 15.976 535.255 15.9776 540.252 15.9612C540.751 15.9612 540.946 16.1303 541.001 16.6139C542.259 27.5921 534.73 34.5648 525.464 34.9041C521.16 35.0704 516.936 33.717 513.547 31.0856C510.158 28.4543 507.825 24.7163 506.964 20.5394C506.854 19.9825 506.764 19.4198 506.668 18.862Z" fill="#D4AC9E"/>
<path d="M609.337 14.9158C609.448 13.1128 609.448 13.1128 611.199 13.1128C611.899 13.1128 612.598 13.1622 613.288 13.0979C614.002 13.0336 614.133 13.3224 614.133 13.9643C614.108 18.1281 614.123 22.2919 614.118 26.4617C614.118 29.1568 614.173 31.8559 614.078 34.551C614.101 37.2508 613.103 39.8614 611.28 41.8698C606.283 47.1117 596.569 45.5154 593.509 38.9809C593.297 38.5279 593.328 38.2836 593.831 38.0907C594.847 37.702 595.864 37.3084 596.846 36.8455C597.424 36.5716 597.656 36.7308 597.953 37.2491C598.562 38.4385 599.55 39.3956 600.765 39.972C601.98 40.5484 603.353 40.7118 604.672 40.4367C607.37 40.0183 609.146 37.9167 609.362 34.8329C609.417 34.0604 609.372 33.2791 609.372 32.5165C609.32 32.4804 609.255 32.4659 609.192 32.476C609.129 32.4862 609.073 32.5202 609.035 32.5709C606.317 35.1513 603.132 35.4302 599.759 34.2691C597.464 33.4243 595.504 31.8727 594.167 29.8426C592.83 27.8125 592.186 25.4112 592.332 22.9922C592.477 20.5732 593.404 18.2644 594.975 16.4055C596.545 14.5467 598.678 13.2361 601.058 12.6667C602.439 12.2911 603.894 12.2759 605.282 12.6225C606.671 12.9692 607.944 13.6659 608.98 14.6448C609.091 14.745 609.211 14.8357 609.337 14.9158ZM597.345 23.7715C597.319 24.3906 597.396 25.0097 597.572 25.6042C597.834 26.7696 598.43 27.8354 599.289 28.6738C600.148 29.5122 601.233 30.0875 602.414 30.3308C603.497 30.602 604.638 30.5415 605.686 30.1572C606.734 29.7729 607.639 29.083 608.282 28.1786C609.231 26.8851 609.748 25.3303 609.761 23.7317C609.773 22.1331 609.281 20.5705 608.352 19.2626C607.865 18.5528 607.215 17.9669 606.456 17.5524C605.697 17.1379 604.85 16.9065 603.984 16.877C600.243 16.7346 597.364 19.6789 597.345 23.7676V23.7715Z" fill="#D4AC9E"/>
<path d="M554.474 34.8852C552.228 34.8699 550.037 34.1958 548.178 32.9481C546.32 31.7004 544.876 29.9352 544.031 27.8757C543.186 25.8162 542.977 23.5549 543.43 21.3778C543.883 19.2006 544.979 17.2054 546.578 15.6444C548.177 14.0834 550.208 13.0267 552.414 12.608C554.619 12.1893 556.901 12.4274 558.97 13.2921C561.04 14.1568 562.803 15.6093 564.038 17.466C565.273 19.3227 565.924 21.5002 565.909 23.723C565.917 25.2042 565.626 26.6722 565.053 28.0403C564.479 29.4084 563.635 30.6492 562.569 31.6893C561.503 32.7295 560.238 33.5482 558.848 34.097C557.458 34.6459 555.971 34.9139 554.474 34.8852ZM548.079 24.6092C548.149 25.5504 548.437 26.463 548.921 27.2766C549.404 28.0901 550.07 28.7828 550.867 29.3012C551.841 30.0333 553.02 30.4509 554.243 30.4973C555.465 30.5437 556.673 30.2165 557.701 29.5603C558.879 28.8307 559.805 27.7657 560.36 26.5051C560.914 25.2445 561.069 23.8475 560.806 22.4976C560.682 21.2317 560.167 20.0341 559.333 19.0667C558.499 18.0994 557.384 17.4089 556.14 17.0886C551.938 15.9127 548.083 19.0904 548.078 24.6092H548.079Z" fill="#D4AC9E"/>
<path d="M567.717 23.5639C567.723 21.3249 568.402 19.1383 569.666 17.2819C570.931 15.4255 572.725 13.9832 574.82 13.1381C576.915 12.2931 579.217 12.0835 581.432 12.536C583.648 12.9885 585.678 14.0827 587.263 15.6795C588.849 17.2763 589.92 19.3036 590.339 21.5039C590.757 23.7042 590.506 25.978 589.616 28.0365C588.726 30.095 587.238 31.8451 585.341 33.0646C583.443 34.2841 581.223 34.9178 578.96 34.8853C577.465 34.8939 575.983 34.6055 574.602 34.0371C573.221 33.4688 571.969 32.632 570.921 31.5764C569.873 30.5208 569.049 29.2678 568.498 27.8915C567.948 26.5152 567.682 25.0436 567.717 23.5639ZM585.543 23.6835C585.623 22.0037 585.045 20.358 583.929 19.0896C582.814 17.8211 581.246 17.0279 579.554 16.8751C578.043 16.7734 576.544 17.21 575.329 18.106C574.115 19.002 573.264 20.2983 572.93 21.7609C572.487 23.2856 572.582 24.9143 573.2 26.3784C573.817 27.8426 574.921 29.0546 576.328 29.8146C580.651 31.9469 585.523 28.7039 585.543 23.6835Z" fill="#D4AC9E"/>
<path d="M624.075 23.5391C624.095 18.2972 627.256 14.0058 632.017 12.7656C636.969 11.4799 641.604 13.6419 644.009 18.3744C645.227 20.7698 645.232 20.7797 642.776 21.7865C638.724 23.4501 634.681 25.1136 630.612 26.7426C629.957 27.0066 629.867 27.1955 630.259 27.7988C630.808 28.6027 631.54 29.267 632.398 29.7376C633.255 30.2081 634.212 30.4716 635.192 30.5066C636.171 30.5416 637.146 30.3471 638.035 29.939C638.924 29.5308 639.703 28.9205 640.309 28.1579C640.853 27.51 641.19 27.3904 641.859 27.9235C642.593 28.5016 643.374 29.018 644.195 29.4673C644.859 29.8363 644.738 30.1151 644.336 30.6077C642.842 32.4811 640.79 33.8414 638.471 34.4958C636.152 35.1501 633.684 35.0653 631.416 34.2533C629.209 33.4585 627.312 31.9953 625.994 30.0717C624.676 28.1481 624.004 25.8622 624.075 23.5391ZM629.028 22.6371C628.872 23.2899 629.219 23.2394 629.772 23.0109C632.414 21.9151 635.069 20.844 637.709 19.7472C638.193 19.5493 639.022 19.493 639.043 19.0301C639.073 18.3872 638.388 17.9491 637.83 17.5753C637.329 17.2387 636.764 17.0065 636.169 16.8928C635.31 16.7528 634.431 16.7947 633.59 17.0159C632.749 17.2371 631.965 17.6325 631.29 18.176C630.615 18.7195 630.064 19.3986 629.674 20.1685C629.284 20.9384 629.063 21.7815 629.027 22.642L629.028 22.6371Z" fill="#D4AC9E"/>
<path d="M621.975 17.776C621.975 22.9615 621.96 28.146 621.99 33.3265C621.99 34.0188 621.844 34.278 621.099 34.2335C620.071 34.1687 619.041 34.1687 618.014 34.2335C617.259 34.278 617.052 34.0446 617.057 33.2969C617.087 26.0443 617.072 18.7927 617.072 11.5382C617.072 8.3901 617.092 5.24696 617.057 2.09887C617.052 1.44117 617.208 1.19689 617.908 1.23744C618.996 1.29224 620.087 1.29224 621.175 1.23744C621.819 1.20777 621.985 1.41645 621.98 2.04448C621.965 7.29129 621.975 12.5361 621.975 17.776Z" fill="#D4AC9E"/>
<path fill-rule="evenodd" clip-rule="evenodd" d="M922.462 31.1245C921.895 30.7248 921.446 30.6677 921.075 31.4291C914.704 44.848 903.974 38.1481 905.049 38.7381C907.434 37.6722 913.688 32.7995 912.749 26.0424C912.183 21.912 908.547 20.0848 904.678 20.7509C897.936 21.893 895.473 28.9737 896.724 35.2359C896.939 36.3208 897.33 37.1964 897.74 38.072C890.138 44.1057 887.109 32.6853 886.757 31.3149C886.738 31.2387 892.64 26.4612 894.281 15.0598C896.001 3.12541 892.092 0.936498 888.086 1.01263C880.68 1.14587 878.686 16.2018 881.363 28.7453C881.148 28.8023 880.093 29.3734 878.412 29.4305C877.201 25.7188 872.022 22.464 870.673 23.7203C867.292 26.8609 871.494 32.9898 874.465 33.4657C872.686 44.1438 861.547 41.4981 863.618 28.1171C867.234 21.5694 870.009 11.8049 869.501 5.9234C869.325 3.84871 867.742 1.0507 864.165 1.18394C857.286 1.45042 856.544 16.5063 857.345 27.2035C857.306 26.937 856.915 28.4978 854.101 29.2782C853.436 25.6808 847.476 22.0453 846.069 23.7964C843.45 27.0513 848.004 32.8566 850.153 33.2563C848.375 43.9345 837.235 41.2887 839.307 27.9078C842.942 21.3601 845.698 11.6146 845.209 5.7331C845.033 3.65837 843.45 0.860362 839.873 0.9936C832.994 1.26008 832.252 16.316 833.053 27.0132C833.014 26.7467 832.623 28.3646 829.692 29.1259C829.594 24.4436 823.614 22.3117 822.168 23.7964C819.608 26.4612 822.754 31.9239 825.666 33.2563C823.887 43.9345 812.748 41.2887 814.82 27.9078C818.435 21.3601 821.21 11.5956 820.702 5.71404C820.546 3.65837 818.963 0.860362 815.386 0.9936C808.507 1.26008 807.96 17.0774 808.761 27.7745C806.494 37.2344 798.892 49.0357 799.889 25.3762C799.986 23.7203 800.084 23.0921 799.244 22.464C798.599 21.9882 797.153 22.2166 796.371 22.2356C795.413 22.2737 795.159 22.8257 794.964 23.6441C794.475 25.7759 794.378 27.8507 794.299 30.6867C794.261 32.0191 794.143 32.6282 793.615 34.4365C793.088 36.2447 790.117 39.5376 788.476 38.9856C786.209 38.2242 786.951 32.0001 787.381 27.7174C787.733 24.3294 786.6 22.8257 783.707 22.2737C782.007 21.9311 780.971 21.9882 779.212 21.4362C777.532 20.9223 777.16 17.8388 773.603 18.8666C771.649 19.4376 772.9 23.4538 772.431 26.4421C770.125 41.1174 765.337 41.5171 763.109 34.3984C773.115 10.4916 765.982 1.06974 761.819 1.06974C757.48 1.06974 752.517 3.98195 754.608 22.6353C753.591 22.3498 753.279 22.1975 752.145 22.1975C745.833 22.1785 741.514 27.1654 741.514 33.3134C741.514 39.4614 745.833 44.4484 752.165 44.4484C755.897 44.4484 758.516 42.7924 760.51 40.2418C761.799 42.0501 763.382 44.4864 766.275 44.3722C774.874 44.0486 777.375 26.8609 777.668 25.8902C778.587 26.0234 779.466 26.2899 780.307 26.4231C781.714 26.6325 781.831 27.1845 781.792 28.5549C781.421 40.2418 783.629 44.3342 788.652 44.3342C791.446 44.3342 793.948 41.6504 795.667 39.747C796.957 42.3356 798.99 44.258 801.745 44.3342C808.39 44.4864 810.95 34.17 810.716 35.5214C810.54 36.5873 812.865 44.258 819.725 44.2961C828.206 44.3342 829.789 35.2549 829.965 33.7322C829.985 33.4276 830.004 33.4657 829.965 33.7322C829.965 33.7512 829.965 33.7893 829.965 33.8273C832.662 33.3325 834.05 31.943 834.05 31.943C834.05 31.943 836.219 44.4484 844.212 44.3152C852.518 44.1628 854.101 35.9592 854.296 34.3603C854.316 33.9796 854.335 34.0177 854.296 34.3603C854.296 34.3794 854.296 34.3984 854.296 34.3984C857.501 33.2563 858.342 32.1333 858.342 32.1333C858.342 32.1333 860.062 44.3913 868.504 44.5055C876.028 44.6008 878.823 37.0822 878.842 33.9416C880.113 33.9606 882.458 33.1992 882.399 33.1612C882.399 33.1612 885.155 43.8774 892.855 44.4293C896.47 44.6957 899.186 42.4498 900.731 41.4219C904.365 44.2961 916.463 47.9508 924.104 35.331C925.198 33.5419 922.873 31.391 922.462 31.1245ZM751.852 40.2799C748.158 40.2799 745.794 36.949 745.794 33.3705C745.794 29.7921 747.963 26.4612 751.657 26.4612C753.318 26.4612 754.236 26.6325 755.546 27.7365C755.78 28.6311 756.445 30.7058 756.777 31.6575C757.207 32.9137 757.735 33.9987 758.243 35.1598C757.48 38.1671 755.057 40.2799 751.852 40.2799ZM760.842 27.8316C760.686 27.5842 760.725 27.7365 760.549 27.5081C759.884 25.7188 758.575 21.7217 758.419 17.1726C758.243 12.0334 759.122 5.99956 761.721 5.99956C763.48 5.99956 765.356 18.2194 760.842 27.8316ZM812.846 22.4831C812.435 19.4376 812.416 5.82827 815.758 6.20892C817.614 6.93222 814.585 19.7612 812.846 22.4831ZM837.333 22.4831C836.923 19.4376 836.903 5.82827 840.245 6.20892C842.102 6.93222 839.072 19.7612 837.333 22.4831ZM861.625 22.6734C861.214 19.6279 861.195 6.01857 864.537 6.39926C866.393 7.10355 863.364 19.9515 861.625 22.6734ZM888.438 5.39049C891.506 5.08592 891.369 18.1243 885.233 26.347C884.431 23.3776 883.22 6.41833 888.438 5.39049ZM901.336 33.4657C900.359 28.612 902.9 25.4333 905.519 25.0907C906.437 24.9575 907.766 25.5285 908.02 26.6135C908.45 28.6501 907.961 31.6765 902.079 35.5024C902.099 35.5214 901.551 34.5316 901.336 33.4657ZM797.387 18.5049C799.478 18.5049 801.178 16.849 801.178 14.8123C801.178 12.7757 799.478 11.1197 797.387 11.1197C795.296 11.1197 793.596 12.7757 793.596 14.8123C793.596 16.849 795.296 18.5049 797.387 18.5049Z" fill="#D4AC9E"/>
<path d="M1052.73 4.45007C1053.17 3.21372 1054 2.14531 1055.08 1.39467C1056.17 0.644042 1057.47 0.248833 1058.79 0.264479C1061.81 0.214038 1063.65 1.82715 1064.82 4.5371C1064.98 4.21566 1065.1 3.97632 1065.22 3.73796C1065.76 2.76927 1066.54 1.94765 1067.48 1.34567C1068.42 0.743691 1069.49 0.379865 1070.61 0.286316C1071.72 0.192767 1072.84 0.372371 1073.87 0.809279C1074.9 1.24619 1075.8 1.92696 1076.5 2.79146C1077.24 3.81772 1077.64 5.04294 1077.65 6.30152C1077.71 7.51012 1077.68 8.72267 1077.68 9.93126V24.5976C1077.68 25.5253 1077.43 25.7785 1076.49 25.7844C1075.16 25.7891 1073.82 25.7891 1072.48 25.7844C1071.63 25.7844 1071.35 25.5045 1071.35 24.65C1071.35 19.7794 1071.35 14.9091 1071.35 10.0391C1071.36 9.48747 1071.33 8.93601 1071.25 8.38938C1071.24 7.92463 1071.08 7.47536 1070.8 7.10342C1070.52 6.73148 1070.13 6.45513 1069.68 6.31241C1069.17 6.13232 1068.62 6.08972 1068.09 6.18896C1067.56 6.2882 1067.06 6.52571 1066.65 6.87714C1066.21 7.31209 1065.87 7.83941 1065.65 8.42096C1065.44 9.00252 1065.36 9.62378 1065.42 10.2398C1065.37 12.5927 1065.39 14.9447 1065.39 17.2976C1065.39 19.7237 1065.39 22.1498 1065.39 24.5758C1065.39 25.4858 1065.11 25.7755 1064.2 25.7795C1062.86 25.7841 1061.53 25.7841 1060.19 25.7795C1059.3 25.7795 1059.04 25.5085 1059.04 24.6174C1059.04 19.7474 1059.05 14.8764 1059.02 10.0064C1059.01 9.34604 1058.91 8.69007 1058.73 8.05409C1058.64 7.51245 1058.36 7.02051 1057.93 6.66434C1057.51 6.30816 1056.97 6.11041 1056.42 6.1057C1055.83 6.03173 1055.24 6.15221 1054.73 6.44826C1054.22 6.7443 1053.83 7.19918 1053.61 7.74156C1053.17 8.91625 1052.98 10.1673 1053.04 11.4178C1053.04 15.8104 1053.04 20.203 1053.04 24.5956C1053.04 25.5144 1052.78 25.7765 1051.85 25.7765C1050.51 25.7811 1049.18 25.7811 1047.84 25.7765C1046.98 25.7765 1046.71 25.5055 1046.71 24.651V1.93001C1046.71 1.02505 1046.96 0.771852 1047.85 0.771852C1049.15 0.771852 1050.45 0.771852 1051.75 0.771852C1052.45 0.771852 1052.72 1.0478 1052.72 1.74111C1052.73 2.653 1052.73 3.54906 1052.73 4.45007Z" fill="#D4AC9E"/>
<path d="M1034.87 9.89868C1034.92 9.07493 1034.91 8.24905 1034.85 7.4261C1034.82 7.03839 1034.7 6.6621 1034.51 6.32123C1034.32 5.98037 1034.06 5.68241 1033.75 5.44634C1033.44 5.21027 1033.08 5.04127 1032.69 4.95012C1032.31 4.85897 1031.91 4.84767 1031.53 4.91693C1030.72 4.90234 1029.93 5.17276 1029.3 5.67997C1028.68 6.18717 1028.25 6.89818 1028.11 7.68622C1027.97 8.32909 1027.64 8.50415 1026.97 8.43492C1025.75 8.30305 1024.54 8.17908 1023.32 8.06304C1022.24 7.95721 1022 7.61303 1022.25 6.57949C1022.52 5.31432 1023.11 4.13838 1023.97 3.16308C1024.83 2.18778 1025.93 1.44542 1027.15 1.00631C1028.77 0.341997 1030.5 0 1032.25 0C1034 0 1035.73 0.341997 1037.34 1.00631C1038.52 1.43671 1039.54 2.21804 1040.25 3.24311C1040.97 4.26819 1041.34 5.48681 1041.33 6.73181C1041.44 9.92539 1041.45 13.1229 1041.39 16.3165C1041.27 18.1274 1041.85 19.9148 1043.02 21.3161C1043.6 21.9965 1043.52 22.3773 1042.85 22.9519C1041.84 23.8157 1040.82 24.6794 1039.82 25.5432C1039.17 26.099 1038.76 26.1455 1038.17 25.5521C1037.34 24.7203 1036.59 23.8203 1035.79 22.9381C1035.26 23.3881 1034.68 23.935 1034.05 24.3988C1032.85 25.2827 1031.46 25.8596 1029.98 26.0778C1028.51 26.296 1027 26.1486 1025.59 25.649C1024.45 25.2923 1023.44 24.5971 1022.7 23.6567C1021.97 22.7163 1021.54 21.5758 1021.48 20.3883C1021.2 18.991 1021.31 17.5452 1021.79 16.2037C1022.28 14.8621 1023.12 13.6744 1024.23 12.7659C1025.6 11.6847 1027.23 10.9851 1028.97 10.7394C1030.93 10.409 1032.9 10.1746 1034.87 9.89868ZM1034.95 13.6016C1034.22 13.6471 1033.59 13.6609 1032.97 13.7391C1032.43 13.8042 1031.91 13.9087 1031.39 14.0516C1028.43 14.8607 1027.69 17.2768 1028.32 19.5566C1028.48 20.1889 1028.88 20.7381 1029.43 21.0924C1029.98 21.4467 1030.65 21.5794 1031.3 21.4634C1031.87 21.3744 1032.41 21.1548 1032.87 20.8222C1033.34 20.4895 1033.73 20.0531 1033.99 19.5477C1035.14 17.712 1034.91 15.6746 1034.95 13.6026V13.6016Z" fill="#D4AC9E"/>
<path d="M1096.16 22.8562C1095.63 23.3161 1095.15 23.7612 1094.64 24.1795C1093.23 25.3787 1091.44 26.0446 1089.58 26.0587C1088.55 26.1004 1087.52 26.0234 1086.5 25.8292C1085.38 25.6104 1084.35 25.0656 1083.54 24.2644C1082.73 23.4633 1082.18 22.4421 1081.96 21.3311C1081.54 19.9603 1081.49 18.5039 1081.82 17.1084C1082.15 15.713 1082.85 14.4278 1083.84 13.3823C1085.29 11.9368 1087.19 11.0106 1089.23 10.7495C1091.11 10.428 1093.01 10.2352 1094.9 9.982C1094.99 9.96815 1095.08 9.9543 1095.29 9.91771C1095.27 8.97056 1095.19 8.02538 1095.06 7.08711C1094.91 6.38398 1094.49 5.7647 1093.89 5.35813C1093.3 4.95156 1092.56 4.78902 1091.84 4.90431C1091.04 4.89586 1090.25 5.1653 1089.62 5.66652C1089 6.16774 1088.56 6.86957 1088.4 7.65184C1088.26 8.33625 1087.93 8.5113 1087.23 8.43712C1086.04 8.30525 1084.84 8.18262 1083.64 8.06921C1082.51 7.95943 1082.28 7.64195 1082.54 6.56687C1082.83 5.2493 1083.46 4.03027 1084.38 3.03138C1085.3 2.03249 1086.46 1.28864 1087.76 0.874004C1090.44 -0.108424 1093.36 -0.243189 1096.13 0.488283C1099.81 1.43973 1101.64 3.76 1101.68 7.53217C1101.71 10.73 1101.72 13.9279 1101.69 17.1258C1101.66 18.4215 1102.07 19.6904 1102.87 20.7189C1104.23 22.4784 1103.76 22.3864 1102.51 23.4664C1101.69 24.1785 1100.87 24.8906 1100.04 25.5938C1099.44 26.1042 1099.02 26.1319 1098.48 25.575C1097.78 24.854 1097.13 24.0678 1096.47 23.3052C1096.36 23.1687 1096.27 23.0125 1096.16 22.8562ZM1095.23 13.5791C1094.29 13.6661 1093.42 13.6988 1092.57 13.8412C1089.57 14.3357 1088.15 16.0922 1088.46 18.8853C1088.48 19.3714 1088.62 19.8439 1088.89 20.2544C1089.15 20.6649 1089.52 20.9988 1089.96 21.2221C1090.4 21.4454 1090.88 21.5501 1091.37 21.5254C1091.87 21.5008 1092.34 21.3477 1092.75 21.0819C1093.64 20.56 1094.32 19.7542 1094.68 18.7982C1095.37 17.1455 1095.22 15.4128 1095.23 13.5791Z" fill="#D4AC9E"/>
<path d="M1157.11 4.90502C1157.43 4.3116 1157.72 3.70533 1158.07 3.13169C1158.65 2.10674 1159.55 1.28595 1160.62 0.781189C1161.7 0.276424 1162.91 0.112225 1164.08 0.310971C1165.56 0.368245 1166.96 0.972333 1168.01 2.00358C1169.05 3.03482 1169.67 4.41802 1169.74 5.87922C1169.9 7.37481 1169.98 8.87798 1169.98 10.3823C1170.01 15.1059 1169.99 19.8295 1169.99 24.5521C1169.99 25.5491 1169.76 25.7884 1168.75 25.7884C1167.45 25.793 1166.15 25.793 1164.85 25.7884C1163.9 25.7884 1163.64 25.5312 1163.64 24.566C1163.64 19.6584 1163.64 14.7518 1163.61 9.84919C1163.6 9.16938 1163.49 8.49515 1163.27 7.85035C1163.14 7.43916 1162.92 7.0656 1162.61 6.76452C1162.3 6.46345 1161.92 6.24466 1161.5 6.12862C1161.09 6.01257 1160.65 6.00303 1160.22 6.10089C1159.8 6.19876 1159.41 6.40082 1159.09 6.68824C1158.26 7.43983 1157.74 8.46952 1157.63 9.5782C1157.49 10.3551 1157.42 11.1422 1157.42 11.9311C1157.4 16.1394 1157.41 20.3487 1157.41 24.5571C1157.41 25.5174 1157.15 25.7835 1156.2 25.7835C1154.86 25.7881 1153.53 25.7881 1152.2 25.7835C1151.36 25.7835 1151.06 25.4798 1151.06 24.6391V1.81727C1151.06 1.08242 1151.37 0.783735 1152.11 0.77879C1153.43 0.774174 1154.75 0.774174 1156.06 0.77879C1156.8 0.77879 1157.06 1.03593 1157.06 1.77573C1157.06 2.80531 1157.06 3.83391 1157.06 4.86349C1157.07 4.87734 1157.09 4.89019 1157.11 4.90502Z" fill="#D4AC9E"/>
<path d="M1126.77 13.0833C1126.73 10.2049 1127.45 7.36699 1128.87 4.85459C1129.77 3.42026 1131.02 2.24169 1132.52 1.43585C1134.01 0.630003 1135.69 0.224877 1137.39 0.260665C1139.1 0.296453 1140.76 0.771914 1142.22 1.63987C1143.68 2.50782 1144.88 3.73811 1145.71 5.20867C1147.03 7.66716 1147.7 10.4117 1147.68 13.1941C1147.8 16.2225 1147 19.2178 1145.38 21.7907C1144.02 23.939 1141.86 25.4692 1139.36 26.0498C1136.87 26.6304 1134.24 26.2145 1132.05 24.8923C1129.84 23.4324 1128.24 21.2193 1127.56 18.6713C1127.01 16.8594 1126.74 14.975 1126.77 13.0833ZM1140.79 13.4512C1140.84 12.6447 1140.83 11.8359 1140.77 11.0301C1140.61 9.66809 1140.36 8.31852 1140.01 6.99089C1139.87 6.45081 1139.55 5.97214 1139.11 5.6285C1138.66 5.28486 1138.12 5.09531 1137.55 5.08899C1136.96 4.99048 1136.35 5.08779 1135.82 5.36594C1135.29 5.64408 1134.86 6.08758 1134.61 6.62793C1134.21 7.47175 1133.94 8.36762 1133.8 9.28842C1133.5 11.4917 1133.47 13.7217 1133.7 15.9327C1133.74 17.2934 1134.08 18.6288 1134.68 19.8523C1134.9 20.3038 1135.24 20.6892 1135.65 20.9677C1136.07 21.2463 1136.56 21.4075 1137.06 21.4343C1137.57 21.4612 1138.07 21.3527 1138.52 21.1203C1138.96 20.8879 1139.34 20.5404 1139.6 20.1143C1139.87 19.7001 1140.09 19.2522 1140.25 18.7821C1140.75 17.0508 1140.93 15.2455 1140.79 13.4503V13.4512Z" fill="#D4AC9E"/>
<path d="M1079.9 44.4267C1066.89 44.2615 1053.94 39.5379 1042.87 29.888C1042.86 29.8745 1042.84 29.8623 1042.83 29.8514C1042.31 29.3964 1042.17 28.9741 1042.4 28.625C1042.64 28.2758 1043.1 28.2709 1043.71 28.5884C1045.61 29.5774 1047.49 30.6238 1049.43 31.5248C1056.22 34.6552 1063.44 36.7956 1070.85 37.8793C1075.62 38.609 1080.44 38.8859 1085.27 38.7062C1094.47 38.3424 1103.53 36.3569 1112.03 32.8432C1112.25 32.7446 1112.48 32.6662 1112.71 32.6088C1112.98 32.548 1113.25 32.5712 1113.5 32.6751C1113.75 32.779 1113.96 32.9583 1114.1 33.1874C1114.23 33.4267 1114.26 33.7044 1114.2 33.9673C1114.13 34.2301 1113.97 34.4596 1113.74 34.6116C1113.01 35.1674 1112.24 35.6995 1111.47 36.1871C1106.01 39.5403 1099.99 41.8922 1093.69 43.1301C1089.15 44.068 1084.53 44.5028 1079.9 44.4267Z" fill="#D4AC9E"/>
<path d="M1116 5.76452H1108.53C1107.49 5.76452 1107.28 5.55287 1107.28 4.55593C1107.28 3.60053 1107.28 2.64414 1107.28 1.68775C1107.28 1.00334 1107.56 0.708601 1108.25 0.708601C1113.2 0.703985 1118.16 0.703985 1123.11 0.708601C1123.82 0.708601 1124.13 0.998387 1124.15 1.71049C1124.21 2.55381 1124.2 3.40024 1124.12 4.2424C1124.03 4.81696 1123.81 5.36354 1123.48 5.84167C1121.68 8.44678 1119.83 11.0242 1118 13.6115C1117.09 14.8972 1116.18 16.1889 1115.23 17.535C1116.13 17.5854 1116.95 17.6082 1117.77 17.6774C1119.81 17.8289 1121.8 18.3871 1123.61 19.3182C1123.91 19.4575 1124.17 19.6827 1124.35 19.9655C1124.52 20.2483 1124.61 20.5761 1124.59 20.9076C1124.6 21.9955 1124.61 23.0765 1124.59 24.1605C1124.58 25.0378 1124.02 25.3414 1123.21 24.9646C1120.81 23.7668 1118.16 23.1471 1115.47 23.1559C1112.78 23.1646 1110.13 23.8016 1107.73 25.015C1107.01 25.3641 1106.43 24.9557 1106.42 24.4038C1106.4 22.9707 1106.37 21.5356 1106.47 20.1074C1106.55 19.4906 1106.79 18.903 1107.15 18.3984C1109.98 14.3276 1112.83 10.2883 1115.69 6.23332C1115.78 6.0998 1115.87 5.96629 1116 5.76452Z" fill="#D4AC9E"/>
<path d="M15.0071 6.92322C16.4973 6.92322 17.8721 7.03747 19.1314 7.37675C20.3908 7.60178 21.4227 8.05531 22.3393 8.62309C23.2558 9.19086 23.9414 9.98367 24.3997 11.005C24.8579 12.0263 25.0853 13.2726 25.0853 14.6332C25.0853 16.2188 24.7425 17.5794 23.9414 18.6007C23.2558 19.622 22.1084 20.5291 20.7336 21.2077C22.6821 21.7754 24.1688 22.7933 25.0853 24.1539C26.0018 25.5145 26.5755 27.2143 26.5755 29.1427C26.5755 30.7283 26.2327 32.0889 25.659 33.2245C25.0853 34.3565 24.1688 35.3779 23.1403 36.0599C22.1084 36.7384 20.849 37.3062 19.4743 37.6455C18.0995 37.9848 16.7247 38.2133 15.3499 38.2133H0V6.92322H15.0071ZM14.0906 19.622C15.3499 19.622 16.3819 19.2828 17.183 18.715C17.984 18.1472 18.3269 17.1294 18.3269 15.8796C18.3269 15.201 18.2114 14.519 17.984 14.0654C17.7567 13.6119 17.4103 13.2726 16.9521 12.9333C16.4938 12.7083 16.0356 12.4798 15.4619 12.3656C14.8882 12.2513 14.318 12.2513 13.6288 12.2513H6.98932V19.622H14.0906ZM14.4334 32.9994C15.119 32.9994 15.8082 32.8852 16.3819 32.7744C16.9556 32.6636 17.5258 32.4351 17.984 32.0958C18.4423 31.7565 18.7851 31.4173 19.1279 30.8495C19.3623 30.2782 19.5897 29.5997 19.5897 28.8034C19.5897 27.2178 19.1314 26.0822 18.2149 25.2894C17.2984 24.6109 16.0391 24.2681 14.5489 24.2681H6.98932V32.9994H14.4334Z" fill="#D4AC9E"/>
<path d="M36.5453 32.8852C37.4618 33.7922 38.8366 34.2458 40.6696 34.2458C41.929 34.2458 43.0764 33.9065 43.9929 33.3387C44.9094 32.6601 45.4831 31.9781 45.7105 31.2996H51.325C50.4085 34.0207 49.0337 35.9491 47.2007 37.1954C45.3677 38.3275 43.1918 39.0096 40.5577 39.0096C38.7247 39.0096 37.1225 38.6703 35.6323 38.1025C34.1421 37.5347 32.9982 36.7419 31.9662 35.6098C30.9343 34.5885 30.1332 33.3422 29.6749 31.8673C29.1012 30.3925 28.8738 28.8069 28.8738 26.9928C28.8738 25.2929 29.1012 23.7038 29.6749 22.2324C30.2486 20.7576 31.0497 19.5113 32.0817 18.3792C33.1136 17.3579 34.3729 16.4508 35.7477 15.8865C37.2379 15.3187 38.7247 14.9794 40.5577 14.9794C42.5062 14.9794 44.2238 15.3187 45.714 16.1115C47.2042 16.9043 48.3481 17.8114 49.2646 19.172C50.1811 20.4183 50.8668 21.8932 51.325 23.4788C51.5524 25.0644 51.6679 26.6535 51.5524 28.4676H34.9396C34.9396 30.2783 35.6288 31.9781 36.5453 32.8852ZM43.762 20.9826C42.9609 20.1898 41.7016 19.7363 40.2114 19.7363C39.1794 19.7363 38.3783 19.9613 37.6927 20.3041C37.0071 20.6434 36.5488 21.0969 36.0905 21.5504C35.6323 22.0039 35.4049 22.5717 35.2895 23.136C35.174 23.7038 35.0621 24.1573 35.0621 24.6109H45.3712C45.1368 22.911 44.5631 21.7754 43.762 20.9826Z" fill="#D4AC9E"/>
<path d="M60.4867 6.92322V18.715H60.6021C61.4032 17.3544 62.4351 16.4473 63.6945 15.8796C64.9538 15.3118 66.1012 14.9725 67.3605 14.9725C69.0781 14.9725 70.4529 15.1975 71.4849 15.6511C72.5168 16.1046 73.4333 16.7832 74.0035 17.5794C74.5772 18.3722 75.0355 19.3935 75.2629 20.5256C75.4903 21.6577 75.6057 22.9075 75.6057 24.3789V38.3241H69.3055V25.5179C69.3055 23.5896 68.9627 22.229 68.389 21.3219C67.8153 20.4148 66.7868 19.9613 65.2966 19.9613C63.579 19.9613 62.3197 20.5291 61.6305 21.4362C60.8295 22.4575 60.4867 24.1573 60.4867 26.425V38.331H54.1865V6.92322H60.4867Z" fill="#D4AC9E"/>
<path d="M80.1918 18.94C80.8775 17.9187 81.6821 17.2402 82.7105 16.5582C83.7425 15.9904 84.8864 15.5368 86.1457 15.3118C87.405 15.0868 88.6644 14.9725 89.9272 14.9725C91.0711 14.9725 92.2185 15.0868 93.4779 15.1976C94.6217 15.3118 95.7692 15.6511 96.6857 16.1046C97.7176 16.5582 98.4033 17.2367 99.0924 18.033C99.6661 18.8258 100.009 19.9614 100.009 21.3219V33.2279C100.009 34.2493 100.124 35.2671 100.236 36.1742C100.352 37.0812 100.695 37.874 101.037 38.3276H94.6252C94.3979 38.1025 94.2824 37.649 94.167 37.3062C94.0516 36.967 94.0515 36.5134 94.0515 36.1742C93.0196 37.1955 91.8757 37.874 90.5009 38.3276C89.1261 38.7811 87.7514 38.8953 86.3766 38.8953C85.2327 38.8953 84.3162 38.7811 83.2842 38.4418C82.3677 38.2168 81.5666 37.7632 80.7655 37.1955C80.0799 36.6277 79.5062 35.9491 79.0479 35.0421C78.7051 34.135 78.4742 33.2279 78.4742 31.9816C78.4742 30.7353 78.7016 29.5997 79.1599 28.8069C79.6181 28.0141 80.1918 27.3321 80.8775 26.7678C81.5631 26.3142 82.4796 25.8607 83.3962 25.6357C84.3127 25.4106 85.2292 25.1821 86.2611 25.0679C87.1777 24.9536 88.0942 24.8429 89.0107 24.7286C89.9272 24.6144 90.7283 24.5036 91.4174 24.3893C92.1031 24.1643 92.6768 23.9358 93.135 23.5965C93.5933 23.2572 93.7087 22.8037 93.7087 22.1217C93.7087 21.4431 93.5933 20.8753 93.3659 20.5361C93.1385 20.1968 92.7922 19.8575 92.4494 19.629C92.1066 19.404 91.6483 19.2897 91.1901 19.1755C90.7318 19.0612 90.1581 19.0612 89.5879 19.0612C88.3286 19.0612 87.412 19.2863 86.7229 19.854C86.0373 20.4218 85.579 21.3289 85.4636 22.461H79.1634C79.1599 21.0969 79.6181 19.8471 80.1918 18.94ZM92.6803 27.7856C92.3375 27.8998 91.8792 28.0106 91.4209 28.1249C90.9627 28.2391 90.5044 28.2391 89.9307 28.3499C89.4725 28.4642 88.8988 28.4642 88.4405 28.5749C87.9822 28.6892 87.524 28.8 87.0657 28.9142C86.6075 29.0285 86.1492 29.2535 85.9218 29.482C85.579 29.707 85.3481 30.0498 85.1207 30.3891C84.7779 30.8426 84.7779 31.2961 84.7779 31.8639C84.7779 32.4317 84.8934 32.8852 85.1207 33.2245C85.3481 33.5638 85.579 33.903 85.9218 34.1315C86.2646 34.3566 86.7229 34.4708 87.1812 34.5851C87.6394 34.6993 88.0977 34.6993 88.6714 34.6993C89.9307 34.6993 90.8472 34.4743 91.5364 34.1315C92.222 33.678 92.6803 33.2245 93.0266 32.6567C93.3694 32.0889 93.6003 31.5246 93.6003 30.9568C93.7157 30.3891 93.7157 29.9355 93.7157 29.5963V27.2144C93.3659 27.4429 93.0231 27.6714 92.6803 27.7856Z" fill="#D4AC9E"/>
<path d="M109.52 15.5403V18.715H109.636C110.437 17.3544 111.469 16.4474 112.728 15.8796C113.988 15.3118 115.362 14.9725 116.622 14.9725C118.339 14.9725 119.714 15.1976 120.746 15.6511C121.89 16.1046 122.694 16.7832 123.265 17.5795C123.838 18.3723 124.297 19.3936 124.639 20.5257C124.867 21.6578 124.982 22.9076 124.982 24.3789V38.3241H118.682V25.518C118.682 23.5896 118.339 22.229 117.766 21.3219C117.192 20.4149 116.163 19.8471 114.558 19.8471C112.84 19.8471 111.581 20.5257 110.776 21.547C109.975 22.5683 109.632 24.2682 109.632 26.5358V38.4418H103.332V15.5403H109.52Z" fill="#D4AC9E"/>
<path d="M139.076 19.6221C138.044 19.6221 137.243 19.8471 136.558 20.3006C135.872 20.7542 135.298 21.3219 134.84 22.1148C134.382 22.7933 134.154 23.5896 133.924 24.4966C133.693 25.4037 133.696 26.1965 133.696 27.1036C133.696 27.8964 133.812 28.8034 133.924 29.5963C134.151 30.5033 134.382 31.1819 134.84 31.8639C135.298 32.5425 135.757 33.1102 136.442 33.5638C137.128 34.0173 137.932 34.2423 138.961 34.2423C140.451 34.2423 141.595 33.7888 142.512 32.996C143.313 32.2032 143.886 31.0676 144.002 29.5963H150.075C149.616 32.6567 148.472 34.9244 146.524 36.5134C144.575 38.0991 142.057 38.8953 138.964 38.8953C137.247 38.8953 135.641 38.5561 134.266 37.9883C132.776 37.4205 131.632 36.6277 130.6 35.6064C129.568 34.5851 128.767 33.3387 128.194 31.9781C127.62 30.5033 127.392 29.0319 127.392 27.3286C127.392 25.5145 127.62 23.9289 128.194 22.454C128.767 20.9792 129.453 19.6186 130.485 18.4865C131.517 17.3544 132.776 16.5582 134.151 15.8796C135.641 15.3118 137.243 14.9725 139.076 14.9725C140.451 14.9725 141.71 15.1976 142.97 15.5403C144.229 15.8796 145.377 16.4474 146.293 17.1259C147.325 17.8045 148.126 18.7116 148.7 19.8471C149.273 20.8684 149.616 22.229 149.732 23.7004H143.547C143.313 20.9827 141.826 19.6221 139.076 19.6221Z" fill="#D4AC9E"/>
<path d="M46.5115 9.07666H33.6802V12.1371H46.5115V9.07666Z" fill="#D4AC9E"/>
<path d="M159.583 32.8852C160.499 33.7922 161.989 34.2458 163.707 34.2458C164.966 34.2458 166.114 33.9065 167.03 33.3387C167.947 32.6601 168.52 31.9781 168.748 31.2996H174.247C173.33 34.0207 171.956 35.9491 170.122 37.1954C168.289 38.3275 166.114 39.0096 163.479 39.0096C161.646 39.0096 160.044 38.6703 158.554 38.1025C157.064 37.5347 155.92 36.7419 154.888 35.6098C153.856 34.5885 153.055 33.3422 152.597 31.8673C152.023 30.3925 151.796 28.8069 151.796 26.9928C151.796 25.2929 152.023 23.7038 152.597 22.2324C153.17 20.7611 153.971 19.5113 155.003 18.3792C156.035 17.3579 157.295 16.4508 158.67 15.8865C160.16 15.3187 161.762 14.9794 163.479 14.9794C165.428 14.9794 167.146 15.3187 168.52 16.1115C170.011 16.9043 171.154 17.8114 172.071 19.172C172.987 20.4183 173.673 21.8932 174.131 23.4788C174.59 25.0644 174.705 26.7677 174.59 28.5818H157.977C157.977 30.2783 158.666 31.9781 159.583 32.8852ZM166.915 20.9826C166.114 20.1898 164.854 19.7363 163.364 19.7363C162.332 19.7363 161.531 19.9613 160.845 20.3041C160.16 20.6434 159.586 21.0969 159.243 21.5504C158.9 22.0039 158.558 22.5717 158.442 23.136C158.327 23.7038 158.215 24.1573 158.215 24.6109H168.524C168.174 22.911 167.6 21.7754 166.915 20.9826Z" fill="#D4AC9E"/>
</svg>
