<svg width="180" height="40" viewBox="0 0 180 40" fill="none" xmlns="http://www.w3.org/2000/svg">
<path d="M34.0521 30C33.3988 30 32.8948 29.8227 32.5401 29.468C32.1854 29.1133 32.0081 28.6093 32.0081 27.956V12.304C32.0081 11.6507 32.1854 11.1467 32.5401 10.792C32.8948 10.4373 33.3988 10.26 34.0521 10.26H39.6801C41.8268 10.26 43.6748 10.652 45.2241 11.436C46.7734 12.22 47.9588 13.3493 48.7801 14.824C49.6014 16.2987 50.0121 18.0627 50.0121 20.116C50.0121 22.1693 49.6014 23.9427 48.7801 25.436C47.9774 26.9107 46.8014 28.04 45.2521 28.824C43.7028 29.608 41.8454 30 39.6801 30H34.0521ZM39.3721 26.472C43.5721 26.472 45.6721 24.3533 45.6721 20.116C45.6721 15.8973 43.5721 13.788 39.3721 13.788H36.3761V26.472H39.3721ZM64.0596 25.912C64.4329 25.912 64.7316 26.0613 64.9556 26.36C65.1982 26.6587 65.3196 27.0413 65.3196 27.508C65.3196 27.8253 65.2262 28.124 65.0396 28.404C64.8529 28.6653 64.5916 28.8893 64.2556 29.076C63.6209 29.412 62.8836 29.692 62.0436 29.916C61.2036 30.1213 60.4289 30.224 59.7196 30.224C58.2262 30.224 56.9196 29.9347 55.7996 29.356C54.6982 28.7773 53.8489 27.956 53.2516 26.892C52.6542 25.8093 52.3556 24.54 52.3556 23.084C52.3556 21.684 52.6449 20.4427 53.2236 19.36C53.8022 18.2773 54.6049 17.4373 55.6316 16.84C56.6582 16.224 57.8249 15.916 59.1316 15.916C60.3822 15.916 61.4742 16.196 62.4076 16.756C63.3596 17.2973 64.0969 18.0813 64.6196 19.108C65.1422 20.116 65.4036 21.3013 65.4036 22.664C65.4036 23.0747 65.3009 23.392 65.0956 23.616C64.9089 23.8213 64.6382 23.924 64.2836 23.924H56.4436C56.5742 25.0253 56.9102 25.828 57.4516 26.332C57.9929 26.8173 58.7676 27.06 59.7756 27.06C60.3169 27.06 60.8022 26.9947 61.2316 26.864C61.6609 26.7333 62.1369 26.556 62.6596 26.332C62.9209 26.22 63.1729 26.1267 63.4156 26.052C63.6582 25.9587 63.8729 25.912 64.0596 25.912ZM59.2436 18.828C58.4409 18.828 57.7969 19.0893 57.3116 19.612C56.8262 20.116 56.5369 20.8533 56.4436 21.824H61.8476C61.7916 20.8347 61.5396 20.088 61.0916 19.584C60.6622 19.08 60.0462 18.828 59.2436 18.828ZM77.0638 17.176C77.2505 16.784 77.4931 16.4947 77.7918 16.308C78.1091 16.1027 78.4451 16 78.7998 16C79.3225 16 79.7891 16.1773 80.1998 16.532C80.6105 16.868 80.8158 17.2787 80.8158 17.764C80.8158 18.044 80.7505 18.3147 80.6198 18.576L75.5798 28.908C75.3931 29.3187 75.1131 29.636 74.7398 29.86C74.3665 30.0653 73.9651 30.168 73.5358 30.168C73.1065 30.168 72.7051 30.0653 72.3318 29.86C71.9585 29.636 71.6691 29.3187 71.4638 28.908L66.4238 18.576C66.3118 18.3147 66.2558 18.0627 66.2558 17.82C66.2558 17.316 66.4705 16.8867 66.8998 16.532C67.3478 16.1773 67.8425 16 68.3838 16C68.7758 16 69.1305 16.1027 69.4478 16.308C69.7651 16.4947 70.0171 16.784 70.2038 17.176L73.6478 24.708L77.0638 17.176ZM101.373 27.34C101.522 27.676 101.597 27.9747 101.597 28.236C101.597 28.7587 101.382 29.2067 100.953 29.58C100.542 29.9347 100.066 30.112 99.5248 30.112C99.1702 30.112 98.8342 30.0187 98.5168 29.832C98.1995 29.6267 97.9568 29.328 97.7888 28.936L96.3048 25.632H86.8128L85.3288 28.936C85.1608 29.328 84.9182 29.6267 84.6008 29.832C84.3022 30.0187 83.9662 30.112 83.5928 30.112C83.0515 30.112 82.5662 29.9347 82.1368 29.58C81.7075 29.2067 81.4928 28.7587 81.4928 28.236C81.4928 27.9747 81.5675 27.676 81.7168 27.34L89.2768 11.464C89.4822 11.016 89.7902 10.68 90.2008 10.456C90.6115 10.2133 91.0502 10.092 91.5168 10.092C92.0022 10.092 92.4502 10.2133 92.8608 10.456C93.2715 10.6987 93.5888 11.0347 93.8128 11.464L101.373 27.34ZM88.2968 22.328H94.8208L91.5728 15.048L88.2968 22.328ZM115.596 15.972C116.231 15.972 116.735 16.1587 117.108 16.532C117.5 16.8867 117.696 17.3627 117.696 17.96V28.516C117.696 30.7373 117.052 32.4173 115.764 33.556C114.476 34.6947 112.591 35.264 110.108 35.264C108.018 35.264 106.3 34.8907 104.956 34.144C104.62 33.9573 104.359 33.724 104.172 33.444C103.986 33.1827 103.892 32.884 103.892 32.548C103.892 32.0813 104.004 31.6987 104.228 31.4C104.452 31.1013 104.751 30.952 105.124 30.952C105.33 30.952 105.572 30.9893 105.852 31.064C106.132 31.1573 106.422 31.26 106.72 31.372C107.318 31.596 107.868 31.7733 108.372 31.904C108.876 32.0347 109.418 32.1 109.996 32.1C111.191 32.1 112.078 31.8293 112.656 31.288C113.235 30.7467 113.524 29.9253 113.524 28.824V27.312C113.132 28.0213 112.544 28.5813 111.76 28.992C110.976 29.4027 110.099 29.608 109.128 29.608C107.934 29.608 106.87 29.328 105.936 28.768C105.022 28.208 104.303 27.4147 103.78 26.388C103.258 25.3427 102.996 24.1387 102.996 22.776C102.996 21.4133 103.258 20.2187 103.78 19.192C104.303 18.1467 105.022 17.344 105.936 16.784C106.87 16.2053 107.934 15.916 109.128 15.916C110.08 15.916 110.939 16.1213 111.704 16.532C112.488 16.924 113.086 17.4747 113.496 18.184V17.904C113.496 17.3067 113.683 16.84 114.056 16.504C114.448 16.1493 114.962 15.972 115.596 15.972ZM110.36 26.388C111.35 26.388 112.115 26.0707 112.656 25.436C113.216 24.8013 113.496 23.9147 113.496 22.776C113.496 21.6373 113.216 20.7507 112.656 20.116C112.115 19.4627 111.35 19.136 110.36 19.136C109.371 19.136 108.596 19.4627 108.036 20.116C107.476 20.7507 107.196 21.6373 107.196 22.776C107.196 23.9147 107.476 24.8013 108.036 25.436C108.596 26.0707 109.371 26.388 110.36 26.388ZM131.981 25.912C132.355 25.912 132.653 26.0613 132.877 26.36C133.12 26.6587 133.241 27.0413 133.241 27.508C133.241 27.8253 133.148 28.124 132.961 28.404C132.775 28.6653 132.513 28.8893 132.177 29.076C131.543 29.412 130.805 29.692 129.965 29.916C129.125 30.1213 128.351 30.224 127.641 30.224C126.148 30.224 124.841 29.9347 123.721 29.356C122.62 28.7773 121.771 27.956 121.173 26.892C120.576 25.8093 120.277 24.54 120.277 23.084C120.277 21.684 120.567 20.4427 121.145 19.36C121.724 18.2773 122.527 17.4373 123.553 16.84C124.58 16.224 125.747 15.916 127.053 15.916C128.304 15.916 129.396 16.196 130.329 16.756C131.281 17.2973 132.019 18.0813 132.541 19.108C133.064 20.116 133.325 21.3013 133.325 22.664C133.325 23.0747 133.223 23.392 133.017 23.616C132.831 23.8213 132.56 23.924 132.205 23.924H124.365C124.496 25.0253 124.832 25.828 125.373 26.332C125.915 26.8173 126.689 27.06 127.697 27.06C128.239 27.06 128.724 26.9947 129.153 26.864C129.583 26.7333 130.059 26.556 130.581 26.332C130.843 26.22 131.095 26.1267 131.337 26.052C131.58 25.9587 131.795 25.912 131.981 25.912ZM127.165 18.828C126.363 18.828 125.719 19.0893 125.233 19.612C124.748 20.116 124.459 20.8533 124.365 21.824H129.769C129.713 20.8347 129.461 20.088 129.013 19.584C128.584 19.08 127.968 18.828 127.165 18.828ZM144.503 15.916C146.146 15.916 147.368 16.4013 148.171 17.372C148.974 18.324 149.375 19.7707 149.375 21.712V28.18C149.375 28.796 149.179 29.2813 148.787 29.636C148.414 29.9907 147.9 30.168 147.247 30.168C146.594 30.168 146.08 29.9907 145.707 29.636C145.334 29.2813 145.147 28.796 145.147 28.18V21.908C145.147 20.9747 144.97 20.2933 144.615 19.864C144.279 19.4347 143.747 19.22 143.019 19.22C142.142 19.22 141.432 19.5 140.891 20.06C140.368 20.62 140.107 21.3667 140.107 22.3V28.18C140.107 28.796 139.92 29.2813 139.547 29.636C139.174 29.9907 138.66 30.168 138.007 30.168C137.354 30.168 136.831 29.9907 136.439 29.636C136.066 29.2813 135.879 28.796 135.879 28.18V17.904C135.879 17.3253 136.075 16.8587 136.467 16.504C136.878 16.1493 137.4 15.972 138.035 15.972C138.614 15.972 139.08 16.1493 139.435 16.504C139.808 16.84 139.995 17.2787 139.995 17.82V18.212C140.48 17.4653 141.106 16.896 141.871 16.504C142.655 16.112 143.532 15.916 144.503 15.916ZM158.887 30.224C157.469 30.224 156.227 29.9347 155.163 29.356C154.099 28.7773 153.278 27.956 152.699 26.892C152.139 25.828 151.859 24.5773 151.859 23.14C151.859 21.7027 152.158 20.4427 152.755 19.36C153.371 18.2587 154.23 17.4093 155.331 16.812C156.433 16.2147 157.702 15.916 159.139 15.916C159.886 15.916 160.633 16.0187 161.379 16.224C162.145 16.4293 162.826 16.7187 163.423 17.092C164.002 17.4467 164.291 17.9693 164.291 18.66C164.291 19.1453 164.179 19.5467 163.955 19.864C163.731 20.1627 163.433 20.312 163.059 20.312C162.817 20.312 162.583 20.2747 162.359 20.2C162.154 20.1067 161.874 19.976 161.519 19.808C161.127 19.6027 160.773 19.444 160.455 19.332C160.157 19.22 159.811 19.164 159.419 19.164C158.374 19.164 157.571 19.5 157.011 20.172C156.47 20.8253 156.199 21.7867 156.199 23.056C156.199 24.3253 156.47 25.296 157.011 25.968C157.571 26.64 158.374 26.976 159.419 26.976C159.811 26.976 160.157 26.9293 160.455 26.836C160.754 26.724 161.118 26.556 161.547 26.332C161.902 26.164 162.182 26.0427 162.387 25.968C162.593 25.8747 162.817 25.828 163.059 25.828C163.414 25.828 163.703 25.9867 163.927 26.304C164.17 26.6213 164.291 27.0227 164.291 27.508C164.291 28.1987 164.002 28.712 163.423 29.048C162.826 29.4213 162.135 29.7107 161.351 29.916C160.567 30.1213 159.746 30.224 158.887 30.224ZM175.747 17.176C175.915 16.784 176.149 16.4947 176.447 16.308C176.765 16.1213 177.101 16.028 177.455 16.028C177.997 16.028 178.473 16.2053 178.883 16.56C179.294 16.896 179.499 17.3067 179.499 17.792C179.499 18.0533 179.434 18.3147 179.303 18.576L171.771 34.032C171.585 34.424 171.333 34.7133 171.015 34.9C170.698 35.1053 170.362 35.208 170.007 35.208C169.485 35.208 169.027 35.04 168.635 34.704C168.243 34.368 168.047 33.9573 168.047 33.472C168.047 33.1733 168.113 32.8933 168.243 32.632L170.091 28.796L165.107 18.576C164.995 18.3147 164.939 18.0627 164.939 17.82C164.939 17.316 165.154 16.8867 165.583 16.532C166.031 16.1773 166.535 16 167.095 16C167.469 16 167.814 16.1027 168.131 16.308C168.449 16.4947 168.701 16.784 168.887 17.176L172.359 24.736L175.747 17.176Z" fill="#1A0C06"/>
<path d="M15.7795 0V7.48342L0 25.0836V17.6002L15.7795 0Z" fill="#1D5EF4"/>
<path d="M15.7795 14.9164V22.3976L0 40V32.5166L15.7795 14.9164Z" fill="#1D5EF4"/>
<path d="M22.4474 0V7.48342L6.66595 25.0836V17.6002L22.4474 0Z" fill="#FF733B"/>
<path d="M22.4474 14.9164V22.3976L6.66595 40V32.5166L22.4474 14.9164Z" fill="#FF733B"/>
</svg>
