<svg width="182" height="40" viewBox="0 0 182 40" fill="none" xmlns="http://www.w3.org/2000/svg">
<path d="M36.1355 29C35.4822 29 34.9782 28.8227 34.6235 28.468C34.2689 28.1133 34.0915 27.6093 34.0915 26.956V11.304C34.0915 10.6507 34.2689 10.1467 34.6235 9.792C34.9782 9.43733 35.4822 9.26 36.1355 9.26H41.7635C43.9102 9.26 45.7582 9.652 47.3075 10.436C48.8569 11.22 50.0422 12.3493 50.8635 13.824C51.6849 15.2987 52.0955 17.0627 52.0955 19.116C52.0955 21.1693 51.6849 22.9427 50.8635 24.436C50.0609 25.9107 48.8849 27.04 47.3355 27.824C45.7862 28.608 43.9289 29 41.7635 29H36.1355ZM41.4555 25.472C45.6555 25.472 47.7555 23.3533 47.7555 19.116C47.7555 14.8973 45.6555 12.788 41.4555 12.788H38.4595V25.472H41.4555ZM66.143 24.912C66.5163 24.912 66.815 25.0613 67.039 25.36C67.2817 25.6587 67.403 26.0413 67.403 26.508C67.403 26.8253 67.3097 27.124 67.123 27.404C66.9363 27.6653 66.675 27.8893 66.339 28.076C65.7043 28.412 64.967 28.692 64.127 28.916C63.287 29.1213 62.5123 29.224 61.803 29.224C60.3097 29.224 59.003 28.9347 57.883 28.356C56.7817 27.7773 55.9323 26.956 55.335 25.892C54.7377 24.8093 54.439 23.54 54.439 22.084C54.439 20.684 54.7283 19.4427 55.307 18.36C55.8857 17.2773 56.6883 16.4373 57.715 15.84C58.7417 15.224 59.9083 14.916 61.215 14.916C62.4657 14.916 63.5577 15.196 64.491 15.756C65.443 16.2973 66.1803 17.0813 66.703 18.108C67.2257 19.116 67.487 20.3013 67.487 21.664C67.487 22.0747 67.3843 22.392 67.179 22.616C66.9923 22.8213 66.7217 22.924 66.367 22.924H58.527C58.6577 24.0253 58.9937 24.828 59.535 25.332C60.0763 25.8173 60.851 26.06 61.859 26.06C62.4003 26.06 62.8857 25.9947 63.315 25.864C63.7443 25.7333 64.2203 25.556 64.743 25.332C65.0043 25.22 65.2563 25.1267 65.499 25.052C65.7417 24.9587 65.9563 24.912 66.143 24.912ZM61.327 17.828C60.5243 17.828 59.8803 18.0893 59.395 18.612C58.9097 19.116 58.6203 19.8533 58.527 20.824H63.931C63.875 19.8347 63.623 19.088 63.175 18.584C62.7457 18.08 62.1297 17.828 61.327 17.828ZM79.1472 16.176C79.3339 15.784 79.5766 15.4947 79.8753 15.308C80.1926 15.1027 80.5286 15 80.8832 15C81.4059 15 81.8726 15.1773 82.2832 15.532C82.6939 15.868 82.8992 16.2787 82.8992 16.764C82.8992 17.044 82.8339 17.3147 82.7033 17.576L77.6632 27.908C77.4766 28.3187 77.1966 28.636 76.8232 28.86C76.4499 29.0653 76.0486 29.168 75.6193 29.168C75.1899 29.168 74.7886 29.0653 74.4152 28.86C74.0419 28.636 73.7526 28.3187 73.5472 27.908L68.5072 17.576C68.3952 17.3147 68.3392 17.0627 68.3392 16.82C68.3392 16.316 68.5539 15.8867 68.9832 15.532C69.4312 15.1773 69.9259 15 70.4672 15C70.8592 15 71.2139 15.1027 71.5312 15.308C71.8486 15.4947 72.1006 15.784 72.2872 16.176L75.7313 23.708L79.1472 16.176ZM103.456 26.34C103.606 26.676 103.68 26.9747 103.68 27.236C103.68 27.7587 103.466 28.2067 103.036 28.58C102.626 28.9347 102.15 29.112 101.608 29.112C101.254 29.112 100.918 29.0187 100.6 28.832C100.283 28.6267 100.04 28.328 99.8723 27.936L98.3883 24.632H88.8963L87.4123 27.936C87.2443 28.328 87.0016 28.6267 86.6843 28.832C86.3856 29.0187 86.0496 29.112 85.6763 29.112C85.1349 29.112 84.6496 28.9347 84.2203 28.58C83.7909 28.2067 83.5763 27.7587 83.5763 27.236C83.5763 26.9747 83.6509 26.676 83.8003 26.34L91.3603 10.464C91.5656 10.016 91.8736 9.68 92.2843 9.456C92.6949 9.21333 93.1336 9.092 93.6003 9.092C94.0856 9.092 94.5336 9.21333 94.9443 9.456C95.3549 9.69867 95.6723 10.0347 95.8963 10.464L103.456 26.34ZM90.3803 21.328H96.9043L93.6563 14.048L90.3803 21.328ZM117.68 14.972C118.314 14.972 118.818 15.1587 119.192 15.532C119.584 15.8867 119.78 16.3627 119.78 16.96V27.516C119.78 29.7373 119.136 31.4173 117.848 32.556C116.56 33.6947 114.674 34.264 112.192 34.264C110.101 34.264 108.384 33.8907 107.04 33.144C106.704 32.9573 106.442 32.724 106.256 32.444C106.069 32.1827 105.976 31.884 105.976 31.548C105.976 31.0813 106.088 30.6987 106.312 30.4C106.536 30.1013 106.834 29.952 107.208 29.952C107.413 29.952 107.656 29.9893 107.936 30.064C108.216 30.1573 108.505 30.26 108.804 30.372C109.401 30.596 109.952 30.7733 110.456 30.904C110.96 31.0347 111.501 31.1 112.08 31.1C113.274 31.1 114.161 30.8293 114.74 30.288C115.318 29.7467 115.608 28.9253 115.608 27.824V26.312C115.216 27.0213 114.628 27.5813 113.844 27.992C113.06 28.4027 112.182 28.608 111.212 28.608C110.017 28.608 108.953 28.328 108.02 27.768C107.105 27.208 106.386 26.4147 105.864 25.388C105.341 24.3427 105.08 23.1387 105.08 21.776C105.08 20.4133 105.341 19.2187 105.864 18.192C106.386 17.1467 107.105 16.344 108.02 15.784C108.953 15.2053 110.017 14.916 111.212 14.916C112.164 14.916 113.022 15.1213 113.788 15.532C114.572 15.924 115.169 16.4747 115.58 17.184V16.904C115.58 16.3067 115.766 15.84 116.14 15.504C116.532 15.1493 117.045 14.972 117.68 14.972ZM112.444 25.388C113.433 25.388 114.198 25.0707 114.74 24.436C115.3 23.8013 115.58 22.9147 115.58 21.776C115.58 20.6373 115.3 19.7507 114.74 19.116C114.198 18.4627 113.433 18.136 112.444 18.136C111.454 18.136 110.68 18.4627 110.12 19.116C109.56 19.7507 109.28 20.6373 109.28 21.776C109.28 22.9147 109.56 23.8013 110.12 24.436C110.68 25.0707 111.454 25.388 112.444 25.388ZM134.065 24.912C134.438 24.912 134.737 25.0613 134.961 25.36C135.204 25.6587 135.325 26.0413 135.325 26.508C135.325 26.8253 135.232 27.124 135.045 27.404C134.858 27.6653 134.597 27.8893 134.261 28.076C133.626 28.412 132.889 28.692 132.049 28.916C131.209 29.1213 130.434 29.224 129.725 29.224C128.232 29.224 126.925 28.9347 125.805 28.356C124.704 27.7773 123.854 26.956 123.257 25.892C122.66 24.8093 122.361 23.54 122.361 22.084C122.361 20.684 122.65 19.4427 123.229 18.36C123.808 17.2773 124.61 16.4373 125.637 15.84C126.664 15.224 127.83 14.916 129.137 14.916C130.388 14.916 131.48 15.196 132.413 15.756C133.365 16.2973 134.102 17.0813 134.625 18.108C135.148 19.116 135.409 20.3013 135.409 21.664C135.409 22.0747 135.306 22.392 135.101 22.616C134.914 22.8213 134.644 22.924 134.289 22.924H126.449C126.58 24.0253 126.916 24.828 127.457 25.332C127.998 25.8173 128.773 26.06 129.781 26.06C130.322 26.06 130.808 25.9947 131.237 25.864C131.666 25.7333 132.142 25.556 132.665 25.332C132.926 25.22 133.178 25.1267 133.421 25.052C133.664 24.9587 133.878 24.912 134.065 24.912ZM129.249 17.828C128.446 17.828 127.802 18.0893 127.317 18.612C126.832 19.116 126.542 19.8533 126.449 20.824H131.853C131.797 19.8347 131.545 19.088 131.097 18.584C130.668 18.08 130.052 17.828 129.249 17.828ZM146.587 14.916C148.229 14.916 149.452 15.4013 150.255 16.372C151.057 17.324 151.459 18.7707 151.459 20.712V27.18C151.459 27.796 151.263 28.2813 150.871 28.636C150.497 28.9907 149.984 29.168 149.331 29.168C148.677 29.168 148.164 28.9907 147.791 28.636C147.417 28.2813 147.231 27.796 147.231 27.18V20.908C147.231 19.9747 147.053 19.2933 146.699 18.864C146.363 18.4347 145.831 18.22 145.103 18.22C144.225 18.22 143.516 18.5 142.975 19.06C142.452 19.62 142.191 20.3667 142.191 21.3V27.18C142.191 27.796 142.004 28.2813 141.631 28.636C141.257 28.9907 140.744 29.168 140.091 29.168C139.437 29.168 138.915 28.9907 138.523 28.636C138.149 28.2813 137.963 27.796 137.963 27.18V16.904C137.963 16.3253 138.159 15.8587 138.551 15.504C138.961 15.1493 139.484 14.972 140.119 14.972C140.697 14.972 141.164 15.1493 141.519 15.504C141.892 15.84 142.079 16.2787 142.079 16.82V17.212C142.564 16.4653 143.189 15.896 143.955 15.504C144.739 15.112 145.616 14.916 146.587 14.916ZM160.971 29.224C159.552 29.224 158.311 28.9347 157.247 28.356C156.183 27.7773 155.362 26.956 154.783 25.892C154.223 24.828 153.943 23.5773 153.943 22.14C153.943 20.7027 154.242 19.4427 154.839 18.36C155.455 17.2587 156.314 16.4093 157.415 15.812C158.516 15.2147 159.786 14.916 161.223 14.916C161.97 14.916 162.716 15.0187 163.463 15.224C164.228 15.4293 164.91 15.7187 165.507 16.092C166.086 16.4467 166.375 16.9693 166.375 17.66C166.375 18.1453 166.263 18.5467 166.039 18.864C165.815 19.1627 165.516 19.312 165.143 19.312C164.9 19.312 164.667 19.2747 164.443 19.2C164.238 19.1067 163.958 18.976 163.603 18.808C163.211 18.6027 162.856 18.444 162.539 18.332C162.24 18.22 161.895 18.164 161.503 18.164C160.458 18.164 159.655 18.5 159.095 19.172C158.554 19.8253 158.283 20.7867 158.283 22.056C158.283 23.3253 158.554 24.296 159.095 24.968C159.655 25.64 160.458 25.976 161.503 25.976C161.895 25.976 162.24 25.9293 162.539 25.836C162.838 25.724 163.202 25.556 163.631 25.332C163.986 25.164 164.266 25.0427 164.471 24.968C164.676 24.8747 164.9 24.828 165.143 24.828C165.498 24.828 165.787 24.9867 166.011 25.304C166.254 25.6213 166.375 26.0227 166.375 26.508C166.375 27.1987 166.086 27.712 165.507 28.048C164.91 28.4213 164.219 28.7107 163.435 28.916C162.651 29.1213 161.83 29.224 160.971 29.224ZM177.831 16.176C177.999 15.784 178.232 15.4947 178.531 15.308C178.848 15.1213 179.184 15.028 179.539 15.028C180.08 15.028 180.556 15.2053 180.967 15.56C181.378 15.896 181.583 16.3067 181.583 16.792C181.583 17.0533 181.518 17.3147 181.387 17.576L173.855 33.032C173.668 33.424 173.416 33.7133 173.099 33.9C172.782 34.1053 172.446 34.208 172.091 34.208C171.568 34.208 171.111 34.04 170.719 33.704C170.327 33.368 170.131 32.9573 170.131 32.472C170.131 32.1733 170.196 31.8933 170.327 31.632L172.175 27.796L167.191 17.576C167.079 17.3147 167.023 17.0627 167.023 16.82C167.023 16.316 167.238 15.8867 167.667 15.532C168.115 15.1773 168.619 15 169.179 15C169.552 15 169.898 15.1027 170.215 15.308C170.532 15.4947 170.784 15.784 170.971 16.176L174.443 23.736L177.831 16.176Z" fill="white"/>
<path d="M17.2139 0V7.48342L0 25.0836V17.6002L17.2139 0Z" fill="#1D5EF4"/>
<path d="M17.2139 14.9165V22.3977L0 40.0001V32.5167L17.2139 14.9165Z" fill="#1D5EF4"/>
<path d="M24.4881 0V7.48342L7.272 25.0836V17.6002L24.4881 0Z" fill="#FF733B"/>
<path d="M24.4881 14.9165V22.3977L7.272 40.0001V32.5167L24.4881 14.9165Z" fill="#FF733B"/>
</svg>
